# 3ds Max Wavefront OBJ Exporter v0.97b - (c)2007 guruware
# File Created: 17.10.2014 16:51:00

mtllib oildrum.mtl

#
# object Cylinder002
#

v  0.0000 0.0000 -0.0000
v  0.2772 0.0000 -0.1148
v  0.3000 0.0000 -0.0000
v  0.2121 0.0000 -0.2121
v  0.1148 0.0000 -0.2772
v  -0.0000 0.0000 -0.3000
v  -0.1148 0.0000 -0.2772
v  -0.2121 0.0000 -0.2121
v  -0.2772 0.0000 -0.1148
v  -0.3000 0.0000 -0.0000
v  -0.2772 0.0000 0.1148
v  -0.2121 0.0000 0.2121
v  -0.1148 0.0000 0.2772
v  0.0000 0.0000 0.3000
v  0.1148 0.0000 0.2772
v  0.2121 0.0000 0.2121
v  0.2772 0.0000 0.1148
v  0.2772 1.0000 -0.1148
v  0.3000 1.0000 -0.0000
v  0.2121 1.0000 -0.2121
v  0.1148 1.0000 -0.2772
v  -0.0000 1.0000 -0.3000
v  -0.1148 1.0000 -0.2772
v  -0.2121 1.0000 -0.2121
v  -0.2772 1.0000 -0.1148
v  -0.3000 1.0000 -0.0000
v  -0.2772 1.0000 0.1148
v  -0.2121 1.0000 0.2121
v  -0.1148 1.0000 0.2772
v  0.0000 1.0000 0.3000
v  0.1148 1.0000 0.2772
v  0.2121 1.0000 0.2121
v  0.2772 1.0000 0.1148
v  0.0000 1.0000 -0.0000
# 34 vertices

vn 0.0000 -1.0000 -0.0000
vn 1.0000 0.0000 -0.0000
vn 0.9239 0.0000 -0.3827
vn 0.7071 0.0000 -0.7071
vn 0.3827 0.0000 -0.9239
vn -0.0000 0.0000 -1.0000
vn 0.0000 0.0000 -1.0000
vn -0.3827 0.0000 -0.9239
vn -0.7071 0.0000 -0.7071
vn -0.9239 0.0000 -0.3827
vn -1.0000 0.0000 -0.0000
vn -0.9239 0.0000 0.3827
vn -0.7071 0.0000 0.7071
vn -0.3827 0.0000 0.9239
vn 0.0000 0.0000 1.0000
vn 0.3827 0.0000 0.9239
vn 0.7071 0.0000 0.7071
vn 0.9239 0.0000 0.3827
vn 0.0000 1.0000 -0.0000
# 19 vertex normals

vt 0.4842 0.1831 0.0000
vt 0.3842 0.2499 0.0000
vt 0.3663 0.2065 0.0000
vt 0.4173 0.2830 0.0000
vt 0.4607 0.3010 1.0000
vt 0.5076 0.3010 0.0000
vt 0.5509 0.2831 0.0000
vt 0.5841 0.2499 0.0000
vt 0.6021 0.2066 0.0000
vt 0.6021 0.1597 0.0000
vt 0.5842 0.1163 0.0000
vt 0.5510 0.0831 0.0000
vt 0.5077 0.0652 0.0000
vt 0.4608 0.0652 0.0000
vt 0.4174 0.0831 0.0000
vt 0.3842 0.1162 0.0000
vt 0.3663 0.1596 0.0000
vt 0.7208 0.3023 1.0000
vt 0.7640 0.7085 0.5000
vt 0.7209 0.7085 0.5000
vt 0.7639 0.3023 1.0000
vt 0.8070 0.7085 0.5000
vt 0.8070 0.3023 1.0000
vt 0.8502 0.7085 0.5000
vt 0.8501 0.3023 1.0000
vt 0.1613 0.3025 1.0000
vt 0.2044 0.7086 0.5000
vt 0.1613 0.7086 0.5000
vt 0.1609 0.3025 1.0000
vt 0.2040 0.3025 1.0000
vt 0.2474 0.7086 0.5000
vt 0.2471 0.3024 1.0000
vt 0.2905 0.7086 0.5000
vt 0.2902 0.3024 1.0000
vt 0.3335 0.7085 0.5000
vt 0.3333 0.3024 1.0000
vt 0.3766 0.7085 0.5000
vt 0.3764 0.3024 1.0000
vt 0.4196 0.7085 0.5000
vt 0.4194 0.3023 1.0000
vt 0.4626 0.7085 0.5000
vt 0.4625 0.3023 1.0000
vt 0.5056 0.7085 0.5000
vt 0.5055 0.3023 1.0000
vt 0.5487 0.7085 0.5000
vt 0.5486 0.3023 1.0000
vt 0.5917 0.7085 0.5000
vt 0.5916 0.3023 1.0000
vt 0.6348 0.7085 0.5000
vt 0.6347 0.3023 1.0000
vt 0.6778 0.7085 0.5000
vt 0.6778 0.3023 1.0000
vt 0.4838 0.8285 0.5000
vt 0.4179 0.9286 0.0000
vt 0.3846 0.8958 0.0000
vt 0.3665 0.8527 0.0000
vt 0.3662 0.8060 0.0000
vt 0.3662 0.8060 0.5000
vt 0.3838 0.7627 0.0000
vt 0.4166 0.7294 0.0000
vt 0.4597 0.7112 0.0000
vt 0.5061 0.7107 0.0000
vt 0.5497 0.7285 0.0000
vt 0.5830 0.7613 0.0000
vt 0.6011 0.8044 0.0000
vt 0.6015 0.8511 0.0000
vt 0.5839 0.8944 0.0000
vt 0.5510 0.9277 0.0000
vt 0.5080 0.9459 0.0000
vt 0.4612 0.9462 0.0000
# 70 texture coords

g Cylinder002
usemtl _oildrum_oildrumOildrum_ref
s 1
f 1/1/1 2/2/1 3/3/1 
f 1/1/1 4/4/1 2/2/1 
f 1/1/1 5/5/1 4/4/1 
f 1/1/1 6/6/1 5/5/1 
f 1/1/1 7/7/1 6/6/1 
f 1/1/1 8/8/1 7/7/1 
f 1/1/1 9/9/1 8/8/1 
f 1/1/1 10/10/1 9/9/1 
f 1/1/1 11/11/1 10/10/1 
f 1/1/1 12/12/1 11/11/1 
f 1/1/1 13/13/1 12/12/1 
f 1/1/1 14/14/1 13/13/1 
f 1/1/1 15/15/1 14/14/1 
f 1/1/1 16/16/1 15/15/1 
f 1/1/1 17/17/1 16/16/1 
f 1/1/1 3/3/1 17/17/1 
s 8
f 3/18/2 18/19/3 19/20/2 
f 3/18/2 2/21/3 18/19/3 
f 2/21/3 20/22/4 18/19/3 
f 2/21/3 4/23/4 20/22/4 
f 4/23/4 21/24/5 20/22/4 
f 4/23/4 5/25/5 21/24/5 
f 5/26/5 22/27/6 21/28/5 
f 5/29/5 6/30/7 22/27/6 
f 6/30/7 23/31/8 22/27/6 
f 6/30/7 7/32/8 23/31/8 
f 7/32/8 24/33/9 23/31/8 
f 7/32/8 8/34/9 24/33/9 
f 8/34/9 25/35/10 24/33/9 
f 8/34/9 9/36/10 25/35/10 
f 9/36/10 26/37/11 25/35/10 
f 9/36/10 10/38/11 26/37/11 
f 10/38/11 27/39/12 26/37/11 
f 10/38/11 11/40/12 27/39/12 
f 11/40/12 28/41/13 27/39/12 
f 11/40/12 12/42/13 28/41/13 
f 12/42/13 29/43/14 28/41/13 
f 12/42/13 13/44/14 29/43/14 
f 13/44/14 30/45/15 29/43/14 
f 13/44/14 14/46/15 30/45/15 
f 14/46/15 31/47/16 30/45/15 
f 14/46/15 15/48/16 31/47/16 
f 15/48/16 32/49/17 31/47/16 
f 15/48/16 16/50/17 32/49/17 
f 16/50/17 33/51/18 32/49/17 
f 16/50/17 17/52/18 33/51/18 
f 17/52/18 19/20/2 33/51/18 
f 17/52/18 3/18/2 19/20/2 
s 1
f 34/53/19 19/54/19 18/55/19 
f 34/53/19 18/55/19 20/56/19 
f 34/53/19 20/56/19 21/57/19 
f 34/53/19 21/58/19 22/59/19 
f 34/53/19 22/59/19 23/60/19 
f 34/53/19 23/60/19 24/61/19 
f 34/53/19 24/61/19 25/62/19 
f 34/53/19 25/62/19 26/63/19 
f 34/53/19 26/63/19 27/64/19 
f 34/53/19 27/64/19 28/65/19 
f 34/53/19 28/65/19 29/66/19 
f 34/53/19 29/66/19 30/67/19 
f 34/53/19 30/67/19 31/68/19 
f 34/53/19 31/68/19 32/69/19 
f 34/53/19 32/69/19 33/70/19 
f 34/53/19 33/70/19 19/54/19 
# 64 faces

